<mxfile host="app.diagrams.net" modified="2023-12-08T04:57:48.238Z" agent="Mozilla/5.0 (Windows NT 10.0; Win64; x64; rv:120.0) Gecko/20100101 Firefox/120.0" etag="GHrFdTPogq6_O9efqbeP" version="22.1.7" type="github">
  <diagram name="第 1 页" id="nmqgCrbLo6-_m_Tvj6HU">
    <mxGraphModel dx="1338" dy="739" grid="1" gridSize="10" guides="1" tooltips="1" connect="1" arrows="1" fold="1" page="1" pageScale="1" pageWidth="827" pageHeight="1169" math="0" shadow="0">
      <root>
        <mxCell id="0" />
        <mxCell id="1" parent="0" />
        <mxCell id="zphs6YIbGsnl2vR9pSNv-1" value="" style="rounded=0;whiteSpace=wrap;html=1;" vertex="1" parent="1">
          <mxGeometry x="30" y="30" width="230" height="70" as="geometry" />
        </mxCell>
      </root>
    </mxGraphModel>
  </diagram>
</mxfile>
